<?xml version="1.0" encoding="UTF-8"?>
<!DOCTYPE svg PUBLIC "-//W3C//DTD SVG 1.1//EN" "http://www.w3.org/Graphics/SVG/1.1/DTD/svg11.dtd">
<!-- Creator: CorelDRAW 2021 (64-Bit) -->
<svg xmlns="http://www.w3.org/2000/svg" xml:space="preserve" width="16.1843in" height="8.5913in" version="1.1" style="shape-rendering:geometricPrecision; text-rendering:geometricPrecision; image-rendering:optimizeQuality; fill-rule:evenodd; clip-rule:evenodd"
viewBox="0 0 1639.77 870.46"
 xmlns:xlink="http://www.w3.org/1999/xlink"
 xmlns:xodm="http://www.corel.com/coreldraw/odm/2003">
 <defs>
  <style type="text/css">
   <![CDATA[
    .str0 {stroke:black;stroke-width:50.66;stroke-linecap:round;stroke-linejoin:round;stroke-miterlimit:2.61313}
    .fil1 {fill:none}
    .fil2 {fill:black}
    .fil0 {fill:white}
   ]]>
  </style>
   <clipPath id="id0">
    <path d="M1639.77 870.46l-1639.77 0 0 -870.46 1639.77 0 0 870.46z"/>
   </clipPath>
 </defs>
 <g id="Layer_x0020_1">
  <metadata id="CorelCorpID_0Corel-Layer"/>
  <polygon class="fil0" points="1639.77,870.46 -0,870.46 -0,0 1639.77,0 "/>
  <g style="clip-path:url(#id0)">
   <g id="_1922020489936">
    <path id="_1" class="fil1 str0" d="M507.72 -141.41c1331.41,349.58 719.42,1231.33 1438.85,931.58l37.64 -25.74"/>
    <path class="fil1 str0" d="M-27.73 850.8c1366.23,-168.18 1124.17,877.48 1681.51,332.68l25.43 -37.85"/>
    <path class="fil1 str0" d="M1247.03 -79.83c-1216.47,-283.46 11.66,669.5 -1202.23,606.99 -46.23,-2.38 -287.17,-4.59 -307.28,37.53"/>
   </g>
  </g>
  <polygon class="fil1" points="1639.77,870.46 -0,870.46 -0,0 1639.77,0 "/>
  <path class="fil2" d="M1256.75 598.79c-0.92,-0.01 -1.82,0.02 -2.31,0.13 -0.99,0.21 -0.7,-0.22 -1.04,-0.84l-0.83 -2.92c-0.06,-0.44 -0.13,-0.89 -0.54,-1l-0.27 2.38c-1.08,4.64 0.87,7.52 -4.61,7l9.6 29.24 9.66 -29.24c-5.55,0.55 -3.59,-2.34 -4.67,-7l-0.27 -2.38c-0.41,0.11 -0.48,0.56 -0.54,1l-0.83 2.92c-0.34,0.63 -0.05,1.05 -1.04,0.84 -0.49,-0.1 -1.4,-0.14 -2.31,-0.13zm-28.04 -7.3c-9.84,0.03 -46.49,-0.16 -46.96,0.04 0.34,0.5 1.33,0.81 1.9,1.08 10.05,4.75 22.49,12.62 20.27,25.64 -0.64,3.99 -0.63,3.21 0.93,3.21 12.07,0.01 25.48,-0.59 36,4.26l-12.14 -34.22zm43.94 34.22c10.52,-4.85 23.93,-4.25 36,-4.26 1.56,-0 1.56,0.78 0.93,-3.21 -2.23,-13.02 10.21,-20.89 20.27,-25.64 0.57,-0.27 1.56,-0.58 1.9,-1.08 -0.47,-0.19 -37.12,-0 -46.96,-0.04l-12.14 34.22z"/>
 </g>
</svg>
